# xmcd
#
# Track frame offsets:
#	150
#	24542
#	40292
#	58917
#	77414
#	91607
#	108600
#	132262
#	153310
#	174233
#	198159
#	216731
#	234127
#	251143
#	268159
#	291429
#	312168
#
# Disc length: 4416 seconds
#
# Revision: 0
# Processed by: cddbd v1.5PL3 Copyright (c) Steve Scherf et al.
# Submitted via: dBpowerAMP V4.0
#
DISCID=ee113e11
DTITLE=dfhg - df
DYEAR=2002
DGENRE=Acid Punk
TTITLE0=d
TTITLE1=g
TTITLE2=e
TTITLE3=w
TTITLE4=z
TTITLE5=zuhg
TTITLE6=tzu
TTITLE7=ztr
TTITLE8=h
TTITLE9=fgh
TTITLE10=fgj
TTITLE11=dsfg
TTITLE12=h
TTITLE13=s
TTITLE14=y
TTITLE15=jg
TTITLE16=h
EXTD=fh
EXTT0=
EXTT1=
EXTT2=
EXTT3=
EXTT4=
EXTT5=
EXTT6=
EXTT7=
EXTT8=
EXTT9=
EXTT10=
EXTT11=
EXTT12=
EXTT13=
EXTT14=
EXTT15=
EXTT16=
PLAYORDER=
